# xmcd
#
# Track frame offsets:
#	150
#	16050
#	30300
#	45675
#	63300
#	79050
#	96000
#	112500
#	131250
#	147525
#	159750
#	176175
#	192150
#	209175
#	226125
#	242850
#
# Disc length: 3258 seconds
#
# Revision: 1
# Processed by: cddbd v1.5.2PL0 Copyright (c) Steve Scherf et al.
# Submitted via: audiograbber 1.83.01
#
DISCID=c90cb810
DTITLE=Big Country - BCY-009
DYEAR=2006
DGENRE=Country
TTITLE0=Sugarland - Want To
TTITLE1=Toby Keith - Crash Here Tonight
TTITLE2=Faith Hill - Sunshine and Summertime
TTITLE3=Kenny Chesney - You Save Me
TTITLE4=The Wreckers - Leave The Pieces
TTITLE5=Steve Holy - Brand New Girlfriend
TTITLE6=Brad Paisley - The World
TTITLE7=Brooks and Dunn - Building Bridges
TTITLE8=Rodney Atkins - If You're Going Through Hell
TTITLE9=Billy Currington - Why Why Why
TTITLE10=Rascal Flatts - Me And My Gang
TTITLE11=Tim McGraw - When The Stars Go Blue
TTITLE12=Pat Green - Feels Just Like It Should
TTITLE13=Josh Turner - Would You Go With Me
TTITLE14=Miranda Lambert - New Strings
TTITLE15=Silence - Silence
EXTD=Karaoke CDG
EXTT0=
EXTT1=
EXTT2=
EXTT3=
EXTT4=
EXTT5=
EXTT6=
EXTT7=
EXTT8=
EXTT9=
EXTT10=
EXTT11=
EXTT12=
EXTT13=
EXTT14=
EXTT15=
PLAYORDER=
